<svg version="1.1" id="Layer_1" xmlns="http://www.w3.org/2000/svg" xmlns:xlink="http://www.w3.org/1999/xlink" x="0px" y="0px"
	 width="100%" viewBox="0 0 120 120" enable-background="new 0 0 120 120" xml:space="preserve">
<path fill="#000000" opacity="1.000000" stroke="none" 
	d="
M74.000000,121.000000 
	C49.333332,121.000000 25.166666,121.000000 1.000000,121.000000 
	C1.000000,81.000000 1.000000,41.000000 1.000000,1.000000 
	C41.000000,1.000000 81.000000,1.000000 121.000000,1.000000 
	C121.000000,41.000000 121.000000,81.000000 121.000000,121.000000 
	C105.500000,121.000000 90.000000,121.000000 74.000000,121.000000 
M108.816727,109.449142 
	C108.875816,97.179054 108.954422,84.908951 108.950523,72.638885 
	C108.950256,71.812004 108.327347,70.985329 107.276093,69.778931 
	C105.979248,69.509590 104.682404,69.240242 102.800354,68.849350 
	C102.800354,79.013084 102.800354,88.426117 102.800354,97.995949 
	C101.170029,97.995949 99.777260,97.580605 98.892532,98.074791 
	C96.363907,99.487236 93.290092,100.780548 91.828178,103.029243 
	C89.993935,105.850647 90.538864,109.205811 93.380043,111.980721 
	C98.446808,116.929306 103.215019,116.408524 108.816727,109.449142 
M21.576048,12.103569 
	C21.057144,13.704044 20.138533,15.291727 20.086826,16.907158 
	C19.829166,24.956924 19.799425,33.013985 18.895643,41.033314 
	C11.788120,41.370804 8.862975,44.254169 9.029462,50.758572 
	C9.155030,55.664387 12.397745,58.140354 18.522585,58.007027 
	C24.322216,57.880779 26.124317,55.406300 26.023136,48.004635 
	C25.943529,42.181114 26.126055,36.352215 25.958441,30.532434 
	C25.870678,27.485188 26.780317,26.171410 30.036877,25.724739 
	C36.595650,24.825134 43.074108,23.339983 49.810593,22.053461 
	C49.810593,26.727928 49.810593,31.147118 49.810593,35.265099 
	C46.704288,35.990356 43.442242,35.953583 41.210480,37.451660 
	C37.433052,39.987274 37.392368,43.830849 39.360813,47.967804 
	C41.535099,52.537354 45.328106,53.847031 49.545719,52.760796 
	C53.373169,51.775047 55.885227,48.588902 55.949245,44.358292 
	C56.082672,35.540188 55.990299,26.718664 55.990398,17.898544 
	C55.990532,5.458436 55.522385,5.167991 43.015343,8.002677 
	C36.205975,9.546003 29.323473,10.766662 21.576048,12.103569 
M37.105026,107.655373 
	C37.341450,107.442146 37.736210,107.263527 37.791466,107.010712 
	C39.977329,97.010345 48.349419,96.622467 56.091599,94.850822 
	C59.581879,94.052147 63.427025,92.675163 65.986168,90.331924 
	C73.958626,83.032021 81.305321,75.053009 89.115295,67.567513 
	C90.578522,66.165070 93.038223,65.171463 95.076729,65.100586 
	C110.381607,64.568459 115.876289,51.806805 112.322083,39.219929 
	C109.606659,29.603510 98.270576,24.865936 87.132439,27.148344 
	C80.229149,28.562952 74.189941,37.377060 73.966331,46.189045 
	C73.930710,47.593132 73.860504,49.439995 73.013321,50.309986 
	C65.935516,57.578339 59.284134,65.473969 51.266724,71.546768 
	C45.095959,76.220818 43.219959,83.091713 46.916756,90.862274 
	C38.047398,91.668106 34.079189,97.426262 31.885954,105.269775 
	C31.385162,107.060715 29.570454,108.844460 27.893185,109.858910 
	C25.576233,111.260239 22.667011,111.667023 20.303673,113.012886 
	C18.962214,113.776810 18.203951,115.564835 17.183037,116.891640 
	C18.816845,117.571503 20.732477,119.162086 22.031492,118.760094 
	C25.891630,117.565544 29.707512,115.907234 33.139217,113.781921 
	C34.901039,112.690811 35.807766,110.218987 37.105026,107.655373 
z"/>
<path fill="#357FE0" opacity="1.000000" stroke="none" 
	d="
M37.102974,108.013245 
	C35.807766,110.218987 34.901039,112.690811 33.139217,113.781921 
	C29.707512,115.907234 25.891630,117.565544 22.031492,118.760094 
	C20.732477,119.162086 18.816845,117.571503 17.183041,116.891640 
	C18.203951,115.564835 18.962214,113.776810 20.303673,113.012886 
	C22.667011,111.667023 25.576233,111.260239 27.893185,109.858910 
	C29.570454,108.844460 31.385162,107.060715 31.885954,105.269775 
	C34.079189,97.426262 38.047398,91.668106 46.916756,90.862274 
	C43.219959,83.091713 45.095959,76.220818 51.266724,71.546768 
	C59.284134,65.473969 65.935516,57.578339 73.013321,50.309986 
	C73.860504,49.439995 73.930710,47.593132 73.966331,46.189045 
	C74.189941,37.377060 80.229149,28.562952 87.132439,27.148344 
	C98.270576,24.865936 109.606659,29.603510 112.322083,39.219929 
	C115.876289,51.806805 110.381607,64.568459 95.076729,65.100586 
	C93.038223,65.171463 90.578522,66.165070 89.115295,67.567513 
	C81.305321,75.053009 73.958626,83.032021 65.986168,90.331924 
	C63.427025,92.675163 59.581879,94.052147 56.091599,94.850822 
	C48.349419,96.622467 39.977329,97.010345 37.791466,107.010712 
	C37.736210,107.263527 37.341450,107.442146 37.102974,108.013245 
M88.803581,59.033257 
	C96.135124,61.590443 102.650795,58.877426 105.946571,51.895191 
	C108.648315,46.171452 106.880119,38.270813 102.175545,35.045521 
	C95.868050,30.721323 91.077759,30.738468 87.342384,34.859100 
	C89.448708,41.332375 99.808884,41.729229 98.791039,51.174294 
	C90.366875,50.730453 88.146912,42.402424 82.224380,39.404709 
	C77.691780,44.442295 80.148514,52.754768 88.803581,59.033257 
M73.942093,73.543617 
	C74.573418,72.862106 75.204742,72.180603 75.116341,72.276031 
	C72.509682,69.407036 70.097305,66.751869 67.386765,63.768539 
	C63.220234,68.058525 59.097923,72.354424 54.918381,76.593910 
	C49.135139,82.460091 49.333164,85.311607 56.773659,90.490578 
	C62.233864,85.093246 67.835327,79.556290 73.942093,73.543617 
M77.453583,63.957348 
	C78.466148,64.925270 79.478706,65.893188 80.574196,66.940384 
	C81.852333,65.580055 82.840889,64.527939 82.881844,64.484352 
	C80.403091,61.498024 78.098701,58.721771 75.617966,55.733055 
	C74.570747,57.043072 73.705391,58.125591 72.726151,59.350586 
	C74.344070,60.912857 75.659111,62.182671 77.453583,63.957348 
z"/>
<path fill="#337BDC" opacity="1.000000" stroke="none" 
	d="
M22.473957,12.132851 
	C29.323473,10.766662 36.205975,9.546003 43.015343,8.002677 
	C55.522385,5.167991 55.990532,5.458436 55.990398,17.898544 
	C55.990299,26.718664 56.082672,35.540188 55.949245,44.358292 
	C55.885227,48.588902 53.373169,51.775047 49.545719,52.760796 
	C45.328106,53.847031 41.535099,52.537354 39.360813,47.967804 
	C37.392368,43.830849 37.433052,39.987274 41.210480,37.451660 
	C43.442242,35.953583 46.704288,35.990356 49.810593,35.265099 
	C49.810593,31.147118 49.810593,26.727928 49.810593,22.053461 
	C43.074108,23.339983 36.595650,24.825134 30.036877,25.724739 
	C26.780317,26.171410 25.870678,27.485188 25.958441,30.532434 
	C26.126055,36.352215 25.943529,42.181114 26.023136,48.004635 
	C26.124317,55.406300 24.322216,57.880779 18.522585,58.007027 
	C12.397745,58.140354 9.155030,55.664387 9.029462,50.758572 
	C8.862975,44.254169 11.788120,41.370804 19.591988,40.968094 
	C20.515736,34.188297 20.625151,27.466681 21.025551,20.762440 
	C21.198452,17.867403 21.972818,15.008286 22.473957,12.132851 
M46.008511,13.496395 
	C40.072895,14.661296 34.125633,15.772492 28.215412,17.054464 
	C27.415749,17.227919 26.802019,18.258581 26.102194,18.892323 
	C27.063873,19.234339 28.105522,20.009447 28.974426,19.849009 
	C35.229385,18.694069 41.460239,17.398205 47.667683,16.008348 
	C48.522930,15.816856 49.207005,14.860875 49.970325,14.258824 
	C48.897346,13.865383 47.824371,13.471942 46.008511,13.496395 
z"/>
<path fill="#327CDD" opacity="1.000000" stroke="none" 
	d="
M108.175652,109.999756 
	C103.215019,116.408524 98.446808,116.929306 93.380043,111.980721 
	C90.538864,109.205811 89.993935,105.850647 91.828178,103.029243 
	C93.290092,100.780548 96.363907,99.487236 98.892532,98.074791 
	C99.777260,97.580605 101.170029,97.995949 102.800354,97.995949 
	C102.800354,88.426117 102.800354,79.013084 102.800354,68.849350 
	C104.682404,69.240242 105.979248,69.509590 107.645187,70.427116 
	C108.068077,84.050117 108.121864,97.024940 108.175652,109.999756 
z"/>
<path fill="#7F7F7F" opacity="1.000000" stroke="none" 
	d="
M108.496185,109.724449 
	C108.121864,97.024940 108.068077,84.050117 108.004158,70.616928 
	C108.327347,70.985329 108.950256,71.812004 108.950523,72.638885 
	C108.954422,84.908951 108.875816,97.179054 108.496185,109.724449 
z"/>
<path fill="#6279A6" opacity="1.000000" stroke="none" 
	d="
M22.025002,12.118210 
	C21.972818,15.008286 21.198452,17.867403 21.025551,20.762440 
	C20.625151,27.466681 20.515736,34.188297 19.988901,40.985676 
	C19.799425,33.013985 19.829166,24.956924 20.086826,16.907158 
	C20.138533,15.291727 21.057144,13.704044 22.025002,12.118210 
z"/>
<path fill="#000000" opacity="1.000000" stroke="none" 
	d="
M88.404633,58.999634 
	C80.148514,52.754768 77.691780,44.442295 82.226074,39.402275 
	C88.146912,42.402424 90.366875,50.730453 98.791039,51.174294 
	C99.808884,41.729229 89.448708,41.332375 87.342384,34.859100 
	C91.077759,30.738468 95.868050,30.721323 102.175545,35.045521 
	C106.880119,38.270813 108.648315,46.171452 105.946571,51.895191 
	C102.650795,58.877426 96.135124,61.590443 88.404633,58.999634 
z"/>
<path fill="#000000" opacity="1.000000" stroke="none" 
	d="
M73.689438,73.781471 
	C67.835327,79.556290 62.233864,85.093246 56.773659,90.490578 
	C49.333164,85.311607 49.135139,82.460091 54.918381,76.593910 
	C59.097923,72.354424 63.220234,68.058525 67.386765,63.768539 
	C70.097305,66.751869 72.509682,69.407036 75.116341,72.276031 
	C75.204742,72.180603 74.573418,72.862106 73.689438,73.781471 
z"/>
<path fill="#000000" opacity="1.000000" stroke="none" 
	d="
M77.213867,63.704914 
	C75.659111,62.182671 74.344070,60.912857 72.726151,59.350586 
	C73.705391,58.125591 74.570747,57.043072 75.617966,55.733055 
	C78.098701,58.721771 80.403091,61.498024 82.881844,64.484352 
	C82.840889,64.527939 81.852333,65.580055 80.574196,66.940384 
	C79.478706,65.893188 78.466148,64.925270 77.213867,63.704914 
z"/>
<path fill="#000000" opacity="1.000000" stroke="none" 
	d="
M46.379951,13.287449 
	C47.824371,13.471942 48.897346,13.865383 49.970325,14.258825 
	C49.207005,14.860875 48.522930,15.816856 47.667683,16.008348 
	C41.460239,17.398205 35.229385,18.694069 28.974426,19.849009 
	C28.105522,20.009447 27.063873,19.234339 26.102194,18.892323 
	C26.802019,18.258581 27.415749,17.227919 28.215412,17.054464 
	C34.125633,15.772492 40.072895,14.661296 46.379951,13.287449 
z"/>
</svg>